<?xml version="1.0" encoding="UTF-8"?>
<svg width="222px" height="53px" viewBox="0 0 222 53" version="1.1" xmlns="http://www.w3.org/2000/svg" xmlns:xlink="http://www.w3.org/1999/xlink">
    <!-- Generator: Sketch 43.2 (39069) - http://www.bohemiancoding.com/sketch -->
    <title>logo</title>
    <desc>Created with Sketch.</desc>
    <defs></defs>
    <g id="main" stroke="none" stroke-width="1" fill="none" fill-rule="evenodd">
        <g id="login" transform="translate(-77.000000, -188.000000)" fill="#1E1E1E">
            <g id="logo" transform="translate(77.000000, 188.000000)">
                <path d="M7.04495542,34.2085865 C7.6005502,33.3254835 8.22864341,32.3706874 8.92713506,31.3590258 C11.4951641,27.6396164 14.4762285,23.9195143 17.8329091,20.4507528 C26.5246903,11.4687494 36.0492491,5.80791199 46.2010981,4.85256642 C52.7346361,9.65186193 57,17.5588079 57,26.5 C57,41.1355459 45.5716617,53 31.4740921,53 C22.077078,53 13.8660442,47.7284416 9.43515047,39.8784801 C6.61216009,42.0665628 2.85893765,45.5003318 0,50.0231044 C0.925983794,46.8674879 4.62807481,37.7786171 7.04509985,34.2090805 Z M5.95255973,26.9956572 C7.95220015,24.165644 10.1420134,21.3769852 12.5083638,18.7206695 C21.0298284,9.15501047 30.2662069,2.97072909 40.0041363,1.51576713 C41.067275,1.90698575 42.0980262,2.36926775 43.0910911,2.89711205 C33.4528964,4.61124551 24.4525253,10.2864913 16.2322043,18.7812922 C12.7800578,22.3487072 9.72001639,26.1673656 7.08298351,29.9867168 C6.82271593,30.3636758 6.57183698,30.7331351 6.33043787,31.0943942 C6.10573494,29.7598198 5.97721242,28.3909132 5.95255973,26.9956572 Z M6.19918568,22.7691205 C7.94583383,9.90014159 18.59631,0 31.4740921,0 C32.6473783,0 33.8021758,0.0821801972 34.9334352,0.241298512 C26.3877982,2.80044717 18.3215714,8.7258551 10.842577,17.1213027 C9.21033647,18.953553 7.66138052,20.8453062 6.19918568,22.7691205 Z M37.4521723,31.0884552 L36.1456398,34.3441722 C35.4374224,36.1089622 34.1971898,37.6303101 32.4249049,38.9082614 C30.65262,40.1862128 28.8798599,40.8251789 27.1065714,40.8251789 L23.9025776,40.8251789 L22.5960451,44.0808959 L27.4020358,44.0808959 C30.5052906,44.0808959 33.6139179,42.9627053 36.7280109,40.7262903 C39.8421039,38.4898754 42.0198256,35.8249811 43.2612411,32.7315273 L47.8279996,21.3517314 C48.536217,19.5869414 48.5145118,18.0655935 47.7628834,16.7876421 C47.0112549,15.5096907 45.753853,14.8707246 43.9906401,14.8707246 L37.5221997,14.8707246 C35.7589867,14.8707246 33.9887455,15.5096907 32.2114228,16.7876421 C30.4341001,18.0655935 29.1913487,19.5869414 28.4831313,21.3517314 L25.8700663,27.8631654 C25.1577786,29.6380979 25.1809851,31.1619814 25.9396865,32.4348615 C26.6983878,33.7077416 27.9542884,34.3441722 29.7074258,34.3441722 L32.941646,34.3441722 C34.845916,34.3441722 36.3494098,33.258944 37.4521723,31.0884552 Z M34.9037103,21.2977689 C35.2559963,20.500463 35.880581,19.809784 36.7774833,19.225711 C37.6743856,18.6416381 38.5689919,18.349606 39.461329,18.349606 C40.343526,18.349606 40.9785552,18.6393204 41.3664358,19.2187578 C41.7543164,19.7981952 41.7700652,20.491192 41.4136829,21.2977689 L38.78384,27.2497205 C38.431554,28.0470264 37.8044342,28.7377055 36.9024619,29.3217784 C36.0004895,29.9058513 35.1084182,30.1978834 34.2262213,30.1978834 C33.3237439,30.1978834 32.6846687,29.9058513 32.3089765,29.3217784 C31.9332843,28.7377055 31.9215814,28.0470264 32.2738674,27.2497205 L34.9037103,21.2977689 Z" id="Combined-Shape"></path>
                <polygon id="Path" points="98 15 82.6229508 46 76.4644809 46 77.4590164 29.3206522 69.1967213 46 63 46 64.8743169 15 71.1092896 15 70.0765027 31.6793478 78.3005464 15 84.5355191 15 83.5027322 31.6793478 91.7650273 15"></polygon>
                <path d="M123.694816,9.68421053 L124.286327,8.00622928 L120.528887,8.00622928 L120.871815,7.06249358 C121.084173,6.46668755 120.684503,6 119.986297,6 L117.504806,6 C116.795882,6 116.071043,6.47569458 115.861894,7.06249358 L115.518967,8.00622928 L113.014007,8.00622928 L113.356934,7.06249358 C113.569293,6.46668755 113.169623,6 112.471417,6 L109.989925,6 C109.281002,6 108.556163,6.47569458 108.347014,7.06249358 L108.004087,8.00622928 L104.246647,8.00622928 L103.655135,9.68421053 L90.7113684,46 L95.7212885,46 L108.477464,10.2105263 L110.982424,10.2105263 L98.2262486,46 L103.236169,46 L115.992345,10.2105263 L118.497305,10.2105263 L105.741129,46 L110.751049,46 L123.694816,9.68421053 Z" id="Combined-Shape"></path>
                <path d="M134.453287,41.6441967 C133.433674,44.6272769 130.030017,46.0781168 124.242215,45.9967601 C121.783148,45.9696412 119.998852,45.7391339 118.889273,45.3052313 C117.629751,44.8170909 117,43.9899765 117,42.8238634 C117,42.3086041 117.104959,41.7391155 117.314879,41.1153805 L124.692042,19.3525634 C125.171859,17.9152612 126.491339,16.8034025 128.650519,16.0169541 C130.419847,15.3389813 132.369078,15 134.49827,15 C138.546733,15 141.380615,15.4338961 143,16.3017012 L139.131488,27.7729431 L131.574394,27.7729431 L133.733564,21.3457934 C133.793541,21.1830799 133.823529,21.0339282 133.823529,20.8983336 C133.823529,20.4373121 133.56863,20.2068048 133.058824,20.2068048 C132.339097,20.2068048 131.844292,20.5864639 131.574394,21.3457934 L125.186851,40.3424955 C125.126874,40.4509711 125.096886,40.5458859 125.096886,40.6272426 C125.096886,41.0340263 125.381773,41.237415 125.951557,41.237415 C126.641295,41.237415 127.091118,40.9391115 127.301038,40.3424955 L130.179931,31.8814376 L137.737024,31.8814376 L134.453287,41.6441967 Z" id="Path"></path>
                <path d="M166,15 L154.967033,29.1100543 L155.747655,29.1100543 C157.857556,29.1100543 158.21978,30.0928335 158.21978,32.2269022 C158.21978,32.6761798 158.131869,33.3781655 157.956044,34.3328804 C157.809523,35.3999148 156.871804,38.3482548 155.142857,43.1779891 C154.908424,43.9361451 154.923076,44.876806 155.186813,46 L148.021978,46 C147.75824,45.1576045 147.802196,44.2169436 148.153846,43.1779891 L151.010989,34.1222826 C151.098902,33.869564 151.142857,33.6449285 151.142857,33.4483696 C151.142857,32.802533 150.688649,32.4796196 149.78022,32.4796196 L145.472527,46 L138,46 L147.89011,15 L155.362637,15 L151.934066,25.6983696 L160.637363,15 L166,15 Z" id="Path"></path>
                <polygon id="Path" points="172.753321 46 159 46 169.246679 15 183 15 181.406072 19.84375 175.394687 19.84375 172.798861 27.6779891 177.671727 27.6779891 176.077799 32.5217391 171.204934 32.5217391 168.335863 41.1141304 174.392789 41.1141304"></polygon>
                <polygon id="Path" points="201.425447 19.84375 196.745527 19.84375 188.435388 46 181 46 189.310139 19.84375 184.586481 19.84375 186.161034 15 203 15"></polygon>
            </g>
        </g>
    </g>
</svg>